<svg width="50" height="47" viewBox="0 0 50 47" fill="none" xmlns="http://www.w3.org/2000/svg">
<path d="M0 5C0 2.23858 2.23858 0 5 0H45C47.7614 0 50 2.23858 50 5V41.875C50 44.6364 47.7614 46.875 45 46.875H5C2.23858 46.875 0 44.6364 0 41.875V5Z" fill="#151515"/>
<path d="M16.8906 34V11.25H25.0625C27.9896 11.25 30.2135 11.7865 31.7344 12.8594C33.2656 13.9323 34.0312 15.4896 34.0312 17.5312C34.0312 18.7083 33.7604 19.7135 33.2188 20.5469C32.6771 21.3802 31.8802 21.9948 30.8281 22.3906C32.0156 22.7031 32.9271 23.2865 33.5625 24.1406C34.1979 24.9948 34.5156 26.0365 34.5156 27.2656C34.5156 29.4948 33.8073 31.1719 32.3906 32.2969C30.9844 33.4115 28.8958 33.9792 26.125 34H16.8906ZM22.375 24.3281V29.7812H25.9688C26.9583 29.7812 27.7188 29.5573 28.25 29.1094C28.7812 28.651 29.0469 28.0104 29.0469 27.1875C29.0469 25.2917 28.1042 24.3385 26.2188 24.3281H22.375ZM22.375 20.7344H25.2344C26.4323 20.724 27.2865 20.5052 27.7969 20.0781C28.3073 19.651 28.5625 19.0208 28.5625 18.1875C28.5625 17.2292 28.2865 16.5417 27.7344 16.125C27.1823 15.6979 26.2917 15.4844 25.0625 15.4844H22.375V20.7344Z" fill="white"/>
</svg>
